<svg width="183" height="62" xmlns="http://www.w3.org/2000/svg" xmlns:xlink="http://www.w3.org/1999/xlink" overflow="hidden"><defs><filter id="fx0" x="-10%" y="-10%" width="120%" height="120%" filterUnits="userSpaceOnUse" primitiveUnits="userSpaceOnUse"><feComponentTransfer color-interpolation-filters="sRGB"><feFuncR type="discrete" tableValues="0 0"/><feFuncG type="discrete" tableValues="0 0"/><feFuncB type="discrete" tableValues="0 0"/><feFuncA type="linear" slope="0.4" intercept="0"/></feComponentTransfer><feGaussianBlur stdDeviation="1.77778 1.77778"/></filter><clipPath id="clip1"><rect x="231" y="181" width="183" height="62"/></clipPath><clipPath id="clip2"><rect x="13" y="13" width="157" height="31"/></clipPath></defs><g clip-path="url(#clip1)" transform="translate(-231 -181)"><g clip-path="url(#clip2)" filter="url(#fx0)" transform="translate(230 180)"><g><path d="M10.2422-5.83594 10.2422 0 5.17969 0 5.17969-5.76562 0-16.8047 5.8125-16.8047 7.62891-11.5195C7.75391-11.1602 7.8418-10.8477 7.89258-10.582 7.94336-10.3164 8-10.0469 8.0625-9.77344L8.10938-9.77344C8.21094-10.4844 8.32422-11.0352 8.44922-11.4258L10.2422-16.8047 15.5977-16.8047ZM33.3034-8.44922C33.3034-6.76172 32.9401-5.25195 32.2135-3.91992 31.487-2.58789 30.4714-1.55273 29.1667-0.814453 27.862-0.0761719 26.401 0.292969 24.7839 0.292969 23.2057 0.292969 21.7702-0.0644531 20.4772-0.779297 19.1842-1.49414 18.1784-2.49805 17.4596-3.79102 16.7409-5.08398 16.3815-6.54688 16.3815-8.17969 16.3815-9.89062 16.7448-11.4297 17.4714-12.7969 18.1979-14.1641 19.2174-15.2207 20.5299-15.9668 21.8424-16.7129 23.3346-17.0859 25.0065-17.0859 26.6159-17.0859 28.0553-16.7285 29.3249-16.0137 30.5944-15.2988 31.5749-14.2793 32.2663-12.9551 32.9577-11.6309 33.3034-10.1289 33.3034-8.44922ZM27.9362-8.30859C27.9362-9.69141 27.6706-10.7812 27.1393-11.5781 26.6081-12.375 25.8815-12.7734 24.9596-12.7734 23.9518-12.7734 23.1667-12.3906 22.6042-11.625 22.0417-10.8594 21.7604-9.77734 21.7604-8.37891 21.7604-7.01172 22.0397-5.94531 22.5983-5.17969 23.1569-4.41406 23.9167-4.03125 24.8776-4.03125 25.4635-4.03125 25.9909-4.20312 26.4596-4.54688 26.9284-4.89062 27.2917-5.38281 27.5495-6.02344 27.8073-6.66406 27.9362-7.42578 27.9362-8.30859ZM50.3008-7.67578C50.3008-4.98047 49.6855-2.97852 48.4551-1.66992 47.2246-0.361328 45.3281 0.292969 42.7656 0.292969 40.375 0.292969 38.5605-0.361328 37.3223-1.66992 36.084-2.97852 35.4648-4.94922 35.4648-7.58203L35.4648-16.8047 40.5508-16.8047 40.5508-7.39453C40.5508-6.31641 40.752-5.48633 41.1543-4.9043 41.5566-4.32227 42.1328-4.03125 42.8828-4.03125 43.6406-4.03125 44.2168-4.30469 44.6113-4.85156 45.0059-5.39844 45.2031-6.20703 45.2031-7.27734L45.2031-16.8047 50.3008-16.8047ZM62.2044 0 60.9505-3.62109C60.7083-4.33203 60.3939-4.89062 60.0072-5.29688 59.6204-5.70312 59.2005-5.90625 58.7474-5.90625L58.5482-5.90625 58.5482 0 53.4857 0 53.4857-16.8047 60.2122-16.8047C62.5638-16.8047 64.3001-16.4199 65.4212-15.6504 66.5423-14.8809 67.1029-13.7266 67.1029-12.1875 67.1029-11.0312 66.7767-10.0625 66.1244-9.28125 65.472-8.5 64.5013-7.93359 63.2122-7.58203L63.2122-7.53516C63.9232-7.31641 64.515-6.96094 64.9876-6.46875 65.4603-5.97656 65.8841-5.24609 66.2591-4.27734L67.9115 0ZM61.724-11.4727C61.724-12.0352 61.5521-12.4805 61.2083-12.8086 60.8646-13.1367 60.3255-13.3008 59.5911-13.3008L58.5482-13.3008 58.5482-9.45703 59.4622-9.45703C60.1419-9.45703 60.6888-9.64844 61.1029-10.0312 61.5169-10.4141 61.724-10.8945 61.724-11.4727ZM76.4857 0 76.4857-16.8047 81.5482-16.8047 81.5482-3.96094 87.3372-3.96094 87.3372 0ZM105.47-8.44922C105.47-6.76172 105.107-5.25195 104.38-3.91992 103.654-2.58789 102.638-1.55273 101.333-0.814453 100.029-0.0761719 98.5677 0.292969 96.9505 0.292969 95.3724 0.292969 93.9368-0.0644531 92.6439-0.779297 91.3509-1.49414 90.345-2.49805 89.6263-3.79102 88.9075-5.08398 88.5482-6.54688 88.5482-8.17969 88.5482-9.89062 88.9115-11.4297 89.638-12.7969 90.3646-14.1641 91.3841-15.2207 92.6966-15.9668 94.0091-16.7129 95.5013-17.0859 97.1732-17.0859 98.7825-17.0859 100.222-16.7285 101.492-16.0137 102.761-15.2988 103.742-14.2793 104.433-12.9551 105.124-11.6309 105.47-10.1289 105.47-8.44922ZM100.103-8.30859C100.103-9.69141 99.8372-10.7812 99.306-11.5781 98.7747-12.375 98.0482-12.7734 97.1263-12.7734 96.1185-12.7734 95.3333-12.3906 94.7708-11.625 94.2083-10.8594 93.9271-9.77734 93.9271-8.37891 93.9271-7.01172 94.2064-5.94531 94.765-5.17969 95.3236-4.41406 96.0833-4.03125 97.0443-4.03125 97.6302-4.03125 98.1575-4.20312 98.6263-4.54688 99.095-4.89062 99.4583-5.38281 99.7161-6.02344 99.974-6.66406 100.103-7.42578 100.103-8.30859ZM122.538-1.10156C121.905-0.742188 120.96-0.419922 119.702-0.134766 118.444 0.150391 117.245 0.292969 116.104 0.292969 113.159 0.292969 110.885-0.443359 109.284-1.91602 107.682-3.38867 106.882-5.45312 106.882-8.10938 106.882-9.89062 107.286-11.4727 108.094-12.8555 108.903-14.2383 110.042-15.2891 111.51-16.0078 112.979-16.7266 114.71-17.0859 116.702-17.0859 118.163-17.0859 119.721-16.8789 121.378-16.4648L121.378-12.0469C120.604-12.3984 119.862-12.6426 119.151-12.7793 118.44-12.916 117.663-12.9844 116.819-12.9844 115.428-12.9844 114.321-12.5664 113.497-11.7305 112.673-10.8945 112.26-9.74609 112.26-8.28516 112.26-6.88672 112.606-5.79297 113.298-5.00391 113.989-4.21484 114.956-3.82031 116.198-3.82031 116.776-3.82031 117.202-3.85156 117.475-3.91406L117.475-6.31641 114.253-6.31641 114.253-10.1484 122.538-10.1484ZM141.303-8.44922C141.303-6.76172 140.94-5.25195 140.214-3.91992 139.487-2.58789 138.471-1.55273 137.167-0.814453 135.862-0.0761719 134.401 0.292969 132.784 0.292969 131.206 0.292969 129.77-0.0644531 128.477-0.779297 127.184-1.49414 126.178-2.49805 125.46-3.79102 124.741-5.08398 124.382-6.54688 124.382-8.17969 124.382-9.89062 124.745-11.4297 125.471-12.7969 126.198-14.1641 127.217-15.2207 128.53-15.9668 129.842-16.7129 131.335-17.0859 133.007-17.0859 134.616-17.0859 136.055-16.7285 137.325-16.0137 138.594-15.2988 139.575-14.2793 140.266-12.9551 140.958-11.6309 141.303-10.1289 141.303-8.44922ZM135.936-8.30859C135.936-9.69141 135.671-10.7812 135.139-11.5781 134.608-12.375 133.882-12.7734 132.96-12.7734 131.952-12.7734 131.167-12.3906 130.604-11.625 130.042-10.8594 129.76-9.77734 129.76-8.37891 129.76-7.01172 130.04-5.94531 130.598-5.17969 131.157-4.41406 131.917-4.03125 132.878-4.03125 133.464-4.03125 133.991-4.20312 134.46-4.54688 134.928-4.89062 135.292-5.38281 135.549-6.02344 135.807-6.66406 135.936-7.42578 135.936-8.30859Z" transform="translate(21.4684 37)"/></g></g><text font-family="Segoe UI Black,Segoe UI Black_MSFontService,sans-serif" font-weight="900" font-size="24" transform="translate(248.64 214)">YOUR LOGO</text></g></svg>